<?xml version="1.0" encoding="utf-8"?>
<!-- Generator: Adobe Illustrator 17.0.0, SVG Export Plug-In . SVG Version: 6.00 Build 0)  -->
<!DOCTYPE svg PUBLIC "-//W3C//DTD SVG 1.1//EN" "http://www.w3.org/Graphics/SVG/1.1/DTD/svg11.dtd">
<svg version="1.1" id="Layer_1" xmlns="http://www.w3.org/2000/svg" xmlns:xlink="http://www.w3.org/1999/xlink" x="0px" y="0px"
	 width="860px" height="342.333px" viewBox="0 0 860 342.333" enable-background="new 0 0 860 342.333" xml:space="preserve">
<g id="XMLID_46_">
	<path id="XMLID_67_" fill="#FFFFFF" d="M507.109,297.541c7.724,0,10.397,4.582,10.397,9.547c0,7.172-4.753,10.057-11.457,10.057
		h-8.783v10.31h-1.572v-29.914H507.109z M505.962,315.701c5.857,0,9.887-2.503,9.887-8.572c0-4.243-2.29-8.104-8.867-8.104h-9.716
		v16.675H505.962z"/>
	<path id="XMLID_61_" fill="#FFFFFF" d="M559.179,318.799h-17.098l-3.82,8.656h-1.698l13.494-29.914h1.188l13.452,29.914h-1.656
		L559.179,318.799z M542.675,317.442h15.955l-8.021-17.992L542.675,317.442z"/>
	<path id="XMLID_58_" fill="#FFFFFF" d="M601.959,317.017c-0.849,0.084-1.782,0.128-2.674,0.128h-8.825v10.31h-1.572v-29.914h11.499
		c7.724,0,10.397,4.582,10.397,9.547c0,5.473-2.8,8.529-7.214,9.59l8.021,10.777h-1.953L601.959,317.017z M590.46,315.701h8.783
		c5.855,0,9.885-2.503,9.885-8.572c0-4.243-2.29-8.104-8.825-8.104h-9.843V315.701z"/>
	<path id="XMLID_56_" fill="#FFFFFF" d="M658.101,299.026h-10.905v28.429h-1.569v-28.429h-10.863v-1.485h23.337V299.026z"/>
	<path id="XMLID_54_" fill="#FFFFFF" d="M708.011,297.541v29.914h-1.02l-21.935-26.901v26.901h-1.572v-29.914h1.062l21.893,26.901
		v-26.901H708.011z"/>
	<path id="XMLID_52_" fill="#FFFFFF" d="M755.754,325.97v1.485h-20.582v-29.914h19.69v1.485h-18.118v13.196h15.487v1.443h-15.487
		v12.305H755.754z"/>
	<path id="XMLID_49_" fill="#FFFFFF" d="M794.246,317.017c-0.849,0.084-1.782,0.128-2.674,0.128h-8.825v10.31h-1.572v-29.914h11.499
		c7.724,0,10.397,4.582,10.397,9.547c0,5.473-2.8,8.529-7.214,9.59l8.021,10.777h-1.953L794.246,317.017z M782.747,315.701h8.783
		c5.854,0,9.885-2.503,9.885-8.572c0-4.243-2.29-8.104-8.825-8.104h-9.843V315.701z"/>
	<path id="XMLID_47_" fill="#FFFFFF" d="M849.119,319.775c0,5.05-4.285,7.977-10.65,7.977c-4.711,0-6.62-0.339-11.373-2.716
		l0.636-1.316c4.498,2.207,6.322,2.546,10.736,2.546c5.431,0,9.038-2.376,9.038-6.45c0-4.03-4.201-5.346-9.167-6.576
		c-5.939-1.443-11.031-3.055-11.031-8.147c0-4.54,3.862-7.722,10.14-7.722c3.397,0,7.808,0.89,10.397,2.291l-0.72,1.358
		c-2.463-1.358-6.62-2.165-9.677-2.165c-5.302,0-8.528,2.589-8.528,6.196c0,3.988,4.456,5.346,9.803,6.662
		C844.324,313.113,849.119,314.768,849.119,319.775z"/>
</g>
<g id="XMLID_42_">
	<path id="XMLID_45_" fill="#FFFFFF" d="M739.829,151.803c20.809-44.688,62.953-72.925,108.804-78.083
		C828.499,116.828,787.056,146.557,739.829,151.803z"/>
	<path id="XMLID_44_" fill="#FFFFFF" d="M738.643,151.938c-0.192,0.016-0.369,0.046-0.553,0.064
		c-1.048-1.451-2.114-2.877-3.219-4.28c-23.971-36.323-29.141-82.189-14.084-122.896c1.478-2.72,2.861-5.5,4.15-8.319l0.004-0.005
		c0.666,0.924,1.338,1.835,2.023,2.74C752.661,57.197,758.714,107.195,738.643,151.938z"/>
	<path id="XMLID_43_" fill="#FFFFFF" d="M794.582,27.99c22.321,10.143,40.598,25.58,54.035,44.146
		c-22.826,2.095-46.477-1.515-68.798-11.659c-21.334-9.694-38.966-24.221-52.215-41.699c-0.534-0.798-1.091-1.589-1.643-2.38
		c0.956-0.09,1.918-0.198,2.869-0.311C750.714,14.563,773.253,18.297,794.582,27.99z"/>
</g>
<g id="XMLID_33_">
	<path id="XMLID_38_" fill="#FFFFFF" d="M70.51,218.916c14.921,1.998,25.314,14.787,25.314,29.577
		c0,15.586-9.858,29.707-28.375,29.707H15.757v-93.92h41.298c11.19,0,20.385,9.194,20.385,20.783
		C77.44,210.392,74.907,216.253,70.51,218.916z M34.275,217.052h17.186c6.395,0,8.927-4.263,8.927-8.126
		c0-4.529-3.731-8.126-10.393-8.126h-15.72V217.052z M57.055,261.68c13.19,0,18.651-6.395,18.651-15.188
		c0-7.592-5.595-15.319-18.518-15.319H34.409v30.507H57.055z"/>
	<path id="XMLID_36_" fill="#FFFFFF" d="M271.976,184.28v93.92h-9.323l-56.088-59.15v59.15h-19.05v-93.92h9.326l55.951,59.15v-59.15
		H271.976z"/>
	<path id="XMLID_34_" fill="#FFFFFF" d="M174.532,200.8h-29.975v77.4h-19.184v-77.4H95.533v-16.52h79V200.8z"/>
</g>
<g id="XMLID_19_">
	<path id="XMLID_31_" fill="#FFFFFF" d="M374.761,257.685l3.862,3.329c-9.058,10.791-22.781,17.718-38.233,17.718
		c-27.044,0-49.158-21.315-49.158-47.425c0-26.112,22.115-47.559,49.158-47.559c15.453,0,29.175,7.06,38.233,17.852l-3.862,3.329
		c-7.994-9.724-20.385-16.252-34.372-16.252c-24.246,0-43.962,19.05-43.962,42.63s19.716,42.496,43.962,42.496
		C354.377,273.803,366.767,267.409,374.761,257.685z"/>
	<path id="XMLID_28_" fill="#FFFFFF" d="M531.015,184.28c24.246,0,32.638,14.388,32.638,29.975
		c0,22.513-14.921,31.571-35.971,31.571h-27.576V278.2h-4.929v-93.92H531.015z M527.417,241.299c18.384,0,31.039-7.86,31.039-26.91
		c0-13.323-7.194-25.446-27.843-25.446h-30.507v52.356H527.417z"/>
	<path id="XMLID_26_" fill="#FFFFFF" d="M588.69,278.2h-4.929v-93.92h4.929V278.2z"/>
	<path id="XMLID_24_" fill="#FFFFFF" d="M683.671,188.943h-34.238V278.2h-4.929v-89.257H610.4v-4.663h73.271V188.943z"/>
	<path id="XMLID_22_" fill="#FFFFFF" d="M849.119,273.669v4.531h-60.214v-93.92h4.929v89.389H849.119z"/>
	<polygon id="XMLID_21_" fill="#FFFFFF" points="435.635,184.28 431.904,184.28 389.539,278.2 394.869,278.2 433.634,190.275 
		472.671,278.2 477.864,278.2 	"/>
	<polygon id="XMLID_20_" fill="#FFFFFF" points="729.363,184.28 725.632,184.28 683.266,278.2 688.596,278.2 727.362,190.275 
		766.398,278.2 771.591,278.2 	"/>
</g>
</svg>
